# xmcd CD database file
#
# Track frame offsets:
#	150
#	28988
#	77663
#	111975
#	145050
#	180975
#	205380
#	229455
#
# Disc length: 3668 seconds
#
# Revision: 0
# Processed by: cddbd v1.5.1PL2 Copyright (c) Steve Scherf et al.
# Submitted via: CDex 1.60beta1
#
DISCID=6d0e5208
DTITLE=五十嵐一生 - Free Drops
DYEAR=2006
DGENRE=Jazz
TTITLE0=Take me back to where i was that day
TTITLE1=Invitation
TTITLE2=Overdue
TTITLE3=Peace
TTITLE4=Free Drops
TTITLE5=Nomad
TTITLE6=Bad Etiquette Mister!
TTITLE7=Loving You, Sometimes Leaving You
EXTD=YEAR: 2006
EXTT0=
EXTT1=
EXTT2=
EXTT3=
EXTT4=
EXTT5=
EXTT6=
EXTT7=
PLAYORDER=
